# xmcd
#
# Track frame offsets:
#	150
#	24969
#	44133
#	67660
#	89948
#	114292
#	140414
#	169645
#	189551
#	214518
#
# Disc length: 3116 seconds
#
# Revision: 988006227
# Processed by: cddbd v1.5.2PL0 Copyright (c) Steve Scherf et al.
# Submitted via: EZCDAudioConverter 8.0.2.1
#
DISCID=860c2a0a
DTITLE=Đăng Vũ - Nửa đêm biên giới
DYEAR=2014
DGENRE=Country
TTITLE0=Đăng Vũ and Tuấn Vũ - Nửa đêm biên giới
TTITLE1=Đăng Vũ - Ngày con về
TTITLE2=Đăng Vũ - Gác vắng
TTITLE3=Đăng Vũ - Thương nhớ một người
TTITLE4=Đăng Vũ - Tiếng ca đó về đâu
TTITLE5=Đăng Vũ and Tuấn Vũ - Chuyến đi về sáng
TTITLE6=Đăng Vũ - Tìm quên
TTITLE7=Đăng Vũ - Cánh thư mùa hạ
TTITLE8=Đăng Vũ - Giọt lệ tình
TTITLE9=Đăng Vũ - Sương lạnh chiều đông
EXTD=
EXTT0=
EXTT1=
EXTT2=
EXTT3=
EXTT4=
EXTT5=
EXTT6=
EXTT7=
EXTT8=
EXTT9=
PLAYORDER=
